<svg width="900" height="1200" viewBox="0 0 900 1200" fill="none" xmlns="http://www.w3.org/2000/svg">
  <rect width="900" height="1200" fill="#F4F1EC"/>
  <path d="M512 181C433 148 341 192 317 273C296 343 321 417 377 459C298 513 242 621 233 760C219 971 334 1067 479 1051C625 1034 717 917 697 733C683 605 622 511 539 460C596 415 620 333 591 263C577 227 550 196 512 181Z" fill="#D8D2C9"/>
  <path d="M381 292C411 230 487 207 545 246C592 279 607 342 581 393C552 449 480 473 422 439C367 406 351 353 381 292Z" fill="#BDB6AA"/>
  <path d="M330 549C429 496 558 516 642 590C680 791 600 925 472 946C355 965 285 866 330 549Z" fill="#C8C1B7"/>
  <path d="M299 608C400 663 501 708 659 670" stroke="#F9F7F3" stroke-width="44" stroke-linecap="round"/>
  <path d="M298 720C397 782 506 818 676 774" stroke="#EEEAE3" stroke-width="38" stroke-linecap="round"/>
  <path d="M358 501C315 641 320 799 368 934" stroke="#A9A093" stroke-width="18" stroke-linecap="round" opacity=".45"/>
  <path d="M548 507C605 656 612 798 559 946" stroke="#A9A093" stroke-width="18" stroke-linecap="round" opacity=".45"/>
  <circle cx="452" cy="309" r="176" stroke="#E7E1D8" stroke-width="2"/>
  <path d="M197 1091C337 1030 547 1013 724 1087" stroke="#D8D2C9" stroke-width="8" stroke-linecap="round"/>
</svg>
